<mxfile host="app.diagrams.net" modified="2021-01-23T14:35:39.179Z" agent="5.0 (Windows NT 10.0; Win64; x64) AppleWebKit/537.36 (KHTML, like Gecko) Chrome/88.0.4324.104 Safari/537.36" etag="GUBfrczUBDHi8GwPaCak" version="14.2.7" type="github">
  <diagram id="R2lEEEUBdFMjLlhIrx00" name="Page-1">
    <mxGraphModel dx="1108" dy="482" grid="1" gridSize="10" guides="1" tooltips="1" connect="1" arrows="1" fold="1" page="1" pageScale="1" pageWidth="850" pageHeight="1100" math="0" shadow="0" extFonts="Permanent Marker^https://fonts.googleapis.com/css?family=Permanent+Marker">
      <root>
        <mxCell id="0" />
        <mxCell id="1" parent="0" />
        <mxCell id="L-6fhLivLxQXYKwf4O9B-1" value="Avion" style="rounded=0;whiteSpace=wrap;html=1;" vertex="1" parent="1">
          <mxGeometry x="60" y="40" width="75" height="40" as="geometry" />
        </mxCell>
        <mxCell id="L-6fhLivLxQXYKwf4O9B-2" value="&lt;u&gt;reg_br&lt;/u&gt;" style="ellipse;whiteSpace=wrap;html=1;" vertex="1" parent="1">
          <mxGeometry x="10" width="50" height="30" as="geometry" />
        </mxCell>
        <mxCell id="L-6fhLivLxQXYKwf4O9B-6" value="" style="endArrow=none;html=1;entryX=0;entryY=0;entryDx=0;entryDy=0;exitX=0.5;exitY=1;exitDx=0;exitDy=0;" edge="1" parent="1" source="L-6fhLivLxQXYKwf4O9B-2" target="L-6fhLivLxQXYKwf4O9B-1">
          <mxGeometry width="50" height="50" relative="1" as="geometry">
            <mxPoint x="50" y="30" as="sourcePoint" />
            <mxPoint x="450" y="230" as="targetPoint" />
          </mxGeometry>
        </mxCell>
        <mxCell id="L-6fhLivLxQXYKwf4O9B-7" value="Model" style="rounded=0;whiteSpace=wrap;html=1;" vertex="1" parent="1">
          <mxGeometry x="250" y="45" width="80" height="30" as="geometry" />
        </mxCell>
        <mxCell id="L-6fhLivLxQXYKwf4O9B-8" value="" style="endArrow=classic;html=1;entryX=0;entryY=0.5;entryDx=0;entryDy=0;exitX=0.5;exitY=0;exitDx=0;exitDy=0;" edge="1" parent="1" source="L-6fhLivLxQXYKwf4O9B-86" target="L-6fhLivLxQXYKwf4O9B-7">
          <mxGeometry width="50" height="50" relative="1" as="geometry">
            <mxPoint x="230" y="100" as="sourcePoint" />
            <mxPoint x="450" y="230" as="targetPoint" />
          </mxGeometry>
        </mxCell>
        <mxCell id="L-6fhLivLxQXYKwf4O9B-9" value="&lt;u&gt;naziv&lt;/u&gt;" style="ellipse;whiteSpace=wrap;html=1;" vertex="1" parent="1">
          <mxGeometry x="180" width="50" height="30" as="geometry" />
        </mxCell>
        <mxCell id="L-6fhLivLxQXYKwf4O9B-12" value="nosivost" style="ellipse;whiteSpace=wrap;html=1;" vertex="1" parent="1">
          <mxGeometry x="250" width="50" height="30" as="geometry" />
        </mxCell>
        <mxCell id="L-6fhLivLxQXYKwf4O9B-13" value="br_put" style="ellipse;whiteSpace=wrap;html=1;" vertex="1" parent="1">
          <mxGeometry x="320" width="50" height="30" as="geometry" />
        </mxCell>
        <mxCell id="L-6fhLivLxQXYKwf4O9B-14" value="" style="endArrow=none;html=1;entryX=0;entryY=1;entryDx=0;entryDy=0;exitX=1;exitY=0;exitDx=0;exitDy=0;" edge="1" parent="1" source="L-6fhLivLxQXYKwf4O9B-7" target="L-6fhLivLxQXYKwf4O9B-13">
          <mxGeometry width="50" height="50" relative="1" as="geometry">
            <mxPoint x="200" y="270" as="sourcePoint" />
            <mxPoint x="250" y="220" as="targetPoint" />
          </mxGeometry>
        </mxCell>
        <mxCell id="L-6fhLivLxQXYKwf4O9B-15" value="" style="endArrow=none;html=1;entryX=0.5;entryY=1;entryDx=0;entryDy=0;exitX=0.5;exitY=0;exitDx=0;exitDy=0;" edge="1" parent="1" source="L-6fhLivLxQXYKwf4O9B-7" target="L-6fhLivLxQXYKwf4O9B-12">
          <mxGeometry width="50" height="50" relative="1" as="geometry">
            <mxPoint x="200" y="270" as="sourcePoint" />
            <mxPoint x="250" y="220" as="targetPoint" />
          </mxGeometry>
        </mxCell>
        <mxCell id="L-6fhLivLxQXYKwf4O9B-16" value="" style="endArrow=none;html=1;entryX=0.5;entryY=1;entryDx=0;entryDy=0;exitX=0;exitY=0;exitDx=0;exitDy=0;" edge="1" parent="1" source="L-6fhLivLxQXYKwf4O9B-7" target="L-6fhLivLxQXYKwf4O9B-9">
          <mxGeometry width="50" height="50" relative="1" as="geometry">
            <mxPoint x="200" y="270" as="sourcePoint" />
            <mxPoint x="250" y="220" as="targetPoint" />
          </mxGeometry>
        </mxCell>
        <mxCell id="L-6fhLivLxQXYKwf4O9B-17" value="Zaposleni" style="rounded=0;whiteSpace=wrap;html=1;" vertex="1" parent="1">
          <mxGeometry x="480" y="40" width="110" height="40" as="geometry" />
        </mxCell>
        <mxCell id="L-6fhLivLxQXYKwf4O9B-18" value="&lt;u&gt;jmbg&lt;/u&gt;" style="ellipse;whiteSpace=wrap;html=1;" vertex="1" parent="1">
          <mxGeometry x="430" width="50" height="30" as="geometry" />
        </mxCell>
        <mxCell id="L-6fhLivLxQXYKwf4O9B-19" value="ime" style="ellipse;whiteSpace=wrap;html=1;" vertex="1" parent="1">
          <mxGeometry x="490" width="50" height="30" as="geometry" />
        </mxCell>
        <mxCell id="L-6fhLivLxQXYKwf4O9B-20" value="prezime" style="ellipse;whiteSpace=wrap;html=1;" vertex="1" parent="1">
          <mxGeometry x="550" width="50" height="30" as="geometry" />
        </mxCell>
        <mxCell id="L-6fhLivLxQXYKwf4O9B-21" value="staz" style="ellipse;whiteSpace=wrap;html=1;" vertex="1" parent="1">
          <mxGeometry x="610" width="50" height="30" as="geometry" />
        </mxCell>
        <mxCell id="L-6fhLivLxQXYKwf4O9B-22" value="" style="endArrow=none;html=1;entryX=0;entryY=1;entryDx=0;entryDy=0;" edge="1" parent="1" target="L-6fhLivLxQXYKwf4O9B-21">
          <mxGeometry width="50" height="50" relative="1" as="geometry">
            <mxPoint x="590" y="40" as="sourcePoint" />
            <mxPoint x="460" y="70" as="targetPoint" />
          </mxGeometry>
        </mxCell>
        <mxCell id="L-6fhLivLxQXYKwf4O9B-23" value="" style="endArrow=none;html=1;entryX=0.5;entryY=1;entryDx=0;entryDy=0;exitX=0.75;exitY=0;exitDx=0;exitDy=0;" edge="1" parent="1" source="L-6fhLivLxQXYKwf4O9B-17" target="L-6fhLivLxQXYKwf4O9B-20">
          <mxGeometry width="50" height="50" relative="1" as="geometry">
            <mxPoint x="410" y="120" as="sourcePoint" />
            <mxPoint x="460" y="70" as="targetPoint" />
          </mxGeometry>
        </mxCell>
        <mxCell id="L-6fhLivLxQXYKwf4O9B-24" value="" style="endArrow=none;html=1;entryX=0.25;entryY=0;entryDx=0;entryDy=0;exitX=0.5;exitY=1;exitDx=0;exitDy=0;" edge="1" parent="1" source="L-6fhLivLxQXYKwf4O9B-19" target="L-6fhLivLxQXYKwf4O9B-17">
          <mxGeometry width="50" height="50" relative="1" as="geometry">
            <mxPoint x="410" y="120" as="sourcePoint" />
            <mxPoint x="460" y="70" as="targetPoint" />
          </mxGeometry>
        </mxCell>
        <mxCell id="L-6fhLivLxQXYKwf4O9B-25" value="" style="endArrow=none;html=1;entryX=0.5;entryY=1;entryDx=0;entryDy=0;exitX=0;exitY=0;exitDx=0;exitDy=0;" edge="1" parent="1" source="L-6fhLivLxQXYKwf4O9B-17" target="L-6fhLivLxQXYKwf4O9B-18">
          <mxGeometry width="50" height="50" relative="1" as="geometry">
            <mxPoint x="410" y="120" as="sourcePoint" />
            <mxPoint x="460" y="70" as="targetPoint" />
          </mxGeometry>
        </mxCell>
        <mxCell id="L-6fhLivLxQXYKwf4O9B-26" value="" style="triangle;whiteSpace=wrap;html=1;rotation=90;" vertex="1" parent="1">
          <mxGeometry x="517.5" y="87.5" width="35" height="60" as="geometry" />
        </mxCell>
        <mxCell id="L-6fhLivLxQXYKwf4O9B-27" value="" style="endArrow=none;html=1;entryX=0.5;entryY=1;entryDx=0;entryDy=0;exitX=0;exitY=0.5;exitDx=0;exitDy=0;" edge="1" parent="1" source="L-6fhLivLxQXYKwf4O9B-26" target="L-6fhLivLxQXYKwf4O9B-17">
          <mxGeometry width="50" height="50" relative="1" as="geometry">
            <mxPoint x="450" y="120" as="sourcePoint" />
            <mxPoint x="500" y="70" as="targetPoint" />
          </mxGeometry>
        </mxCell>
        <mxCell id="L-6fhLivLxQXYKwf4O9B-28" value="" style="endArrow=none;html=1;entryX=0.5;entryY=0;entryDx=0;entryDy=0;exitX=0.5;exitY=0;exitDx=0;exitDy=0;" edge="1" parent="1" source="L-6fhLivLxQXYKwf4O9B-33" target="L-6fhLivLxQXYKwf4O9B-26">
          <mxGeometry width="50" height="50" relative="1" as="geometry">
            <mxPoint x="450" y="120" as="sourcePoint" />
            <mxPoint x="500" y="70" as="targetPoint" />
          </mxGeometry>
        </mxCell>
        <mxCell id="L-6fhLivLxQXYKwf4O9B-29" value="" style="endArrow=none;html=1;exitX=0.5;exitY=0;exitDx=0;exitDy=0;entryX=0.5;entryY=1;entryDx=0;entryDy=0;" edge="1" parent="1" source="L-6fhLivLxQXYKwf4O9B-37" target="L-6fhLivLxQXYKwf4O9B-26">
          <mxGeometry width="50" height="50" relative="1" as="geometry">
            <mxPoint x="450" y="120" as="sourcePoint" />
            <mxPoint x="500" y="70" as="targetPoint" />
          </mxGeometry>
        </mxCell>
        <mxCell id="L-6fhLivLxQXYKwf4O9B-30" value="" style="endArrow=none;html=1;exitX=0.5;exitY=0;exitDx=0;exitDy=0;entryX=0.171;entryY=0.933;entryDx=0;entryDy=0;entryPerimeter=0;" edge="1" parent="1" source="L-6fhLivLxQXYKwf4O9B-38" target="L-6fhLivLxQXYKwf4O9B-26">
          <mxGeometry width="50" height="50" relative="1" as="geometry">
            <mxPoint x="450" y="120" as="sourcePoint" />
            <mxPoint x="500" y="70" as="targetPoint" />
          </mxGeometry>
        </mxCell>
        <mxCell id="L-6fhLivLxQXYKwf4O9B-31" value="" style="endArrow=none;html=1;entryX=0.171;entryY=0.067;entryDx=0;entryDy=0;entryPerimeter=0;exitX=0.5;exitY=0;exitDx=0;exitDy=0;" edge="1" parent="1" source="L-6fhLivLxQXYKwf4O9B-34" target="L-6fhLivLxQXYKwf4O9B-26">
          <mxGeometry width="50" height="50" relative="1" as="geometry">
            <mxPoint x="450" y="120" as="sourcePoint" />
            <mxPoint x="470" y="100" as="targetPoint" />
          </mxGeometry>
        </mxCell>
        <mxCell id="L-6fhLivLxQXYKwf4O9B-33" value="Osoblje" style="rounded=0;whiteSpace=wrap;html=1;" vertex="1" parent="1">
          <mxGeometry x="540" y="160" width="80" height="40" as="geometry" />
        </mxCell>
        <mxCell id="L-6fhLivLxQXYKwf4O9B-34" value="Tehnicar" style="rounded=0;whiteSpace=wrap;html=1;" vertex="1" parent="1">
          <mxGeometry x="630" y="160" width="80" height="40" as="geometry" />
        </mxCell>
        <mxCell id="L-6fhLivLxQXYKwf4O9B-37" value="Menadzer" style="rounded=0;whiteSpace=wrap;html=1;" vertex="1" parent="1">
          <mxGeometry x="450" y="160" width="80" height="40" as="geometry" />
        </mxCell>
        <mxCell id="L-6fhLivLxQXYKwf4O9B-38" value="Pilot" style="rounded=0;whiteSpace=wrap;html=1;" vertex="1" parent="1">
          <mxGeometry x="360" y="160" width="80" height="40" as="geometry" />
        </mxCell>
        <mxCell id="L-6fhLivLxQXYKwf4O9B-39" value="VSS" style="rounded=0;whiteSpace=wrap;html=1;" vertex="1" parent="1">
          <mxGeometry x="450" y="240" width="80" height="40" as="geometry" />
        </mxCell>
        <mxCell id="L-6fhLivLxQXYKwf4O9B-40" value="" style="endArrow=classic;html=1;entryX=0.5;entryY=0;entryDx=0;entryDy=0;exitX=0.5;exitY=1;exitDx=0;exitDy=0;" edge="1" parent="1" source="L-6fhLivLxQXYKwf4O9B-37" target="L-6fhLivLxQXYKwf4O9B-39">
          <mxGeometry width="50" height="50" relative="1" as="geometry">
            <mxPoint x="550" y="270" as="sourcePoint" />
            <mxPoint x="600" y="220" as="targetPoint" />
          </mxGeometry>
        </mxCell>
        <mxCell id="L-6fhLivLxQXYKwf4O9B-41" value="&lt;u&gt;naziv&lt;/u&gt;" style="ellipse;whiteSpace=wrap;html=1;" vertex="1" parent="1">
          <mxGeometry x="465" y="290" width="50" height="30" as="geometry" />
        </mxCell>
        <mxCell id="L-6fhLivLxQXYKwf4O9B-42" value="" style="endArrow=none;html=1;exitX=0.5;exitY=1;exitDx=0;exitDy=0;entryX=0.5;entryY=0;entryDx=0;entryDy=0;" edge="1" parent="1" source="L-6fhLivLxQXYKwf4O9B-39" target="L-6fhLivLxQXYKwf4O9B-41">
          <mxGeometry width="50" height="50" relative="1" as="geometry">
            <mxPoint x="550" y="270" as="sourcePoint" />
            <mxPoint x="600" y="220" as="targetPoint" />
          </mxGeometry>
        </mxCell>
        <mxCell id="L-6fhLivLxQXYKwf4O9B-43" value="sati_leta" style="ellipse;whiteSpace=wrap;html=1;" vertex="1" parent="1">
          <mxGeometry x="375" y="210" width="50" height="30" as="geometry" />
        </mxCell>
        <mxCell id="L-6fhLivLxQXYKwf4O9B-44" value="" style="endArrow=none;html=1;entryX=0.5;entryY=1;entryDx=0;entryDy=0;exitX=0.5;exitY=0;exitDx=0;exitDy=0;" edge="1" parent="1" source="L-6fhLivLxQXYKwf4O9B-43" target="L-6fhLivLxQXYKwf4O9B-38">
          <mxGeometry width="50" height="50" relative="1" as="geometry">
            <mxPoint x="440" y="270" as="sourcePoint" />
            <mxPoint x="490" y="220" as="targetPoint" />
          </mxGeometry>
        </mxCell>
        <mxCell id="L-6fhLivLxQXYKwf4O9B-45" value="sati_leta" style="ellipse;whiteSpace=wrap;html=1;" vertex="1" parent="1">
          <mxGeometry x="590" y="220" width="50" height="30" as="geometry" />
        </mxCell>
        <mxCell id="L-6fhLivLxQXYKwf4O9B-47" value="" style="endArrow=none;html=1;entryX=0.75;entryY=1;entryDx=0;entryDy=0;exitX=0.5;exitY=0;exitDx=0;exitDy=0;" edge="1" parent="1" source="L-6fhLivLxQXYKwf4O9B-45" target="L-6fhLivLxQXYKwf4O9B-33">
          <mxGeometry width="50" height="50" relative="1" as="geometry">
            <mxPoint x="590" y="170" as="sourcePoint" />
            <mxPoint x="560" y="127.5" as="targetPoint" />
          </mxGeometry>
        </mxCell>
        <mxCell id="L-6fhLivLxQXYKwf4O9B-48" value="Let" style="rounded=0;whiteSpace=wrap;html=1;" vertex="1" parent="1">
          <mxGeometry x="200" y="280" width="70" height="40" as="geometry" />
        </mxCell>
        <mxCell id="L-6fhLivLxQXYKwf4O9B-49" value="&lt;u&gt;id&lt;/u&gt;" style="ellipse;whiteSpace=wrap;html=1;" vertex="1" parent="1">
          <mxGeometry x="300" y="339" width="50" height="30" as="geometry" />
        </mxCell>
        <mxCell id="L-6fhLivLxQXYKwf4O9B-51" value="" style="endArrow=none;html=1;entryX=0.5;entryY=1;entryDx=0;entryDy=0;exitX=0.5;exitY=0;exitDx=0;exitDy=0;" edge="1" parent="1" source="L-6fhLivLxQXYKwf4O9B-53" target="L-6fhLivLxQXYKwf4O9B-48">
          <mxGeometry width="50" height="50" relative="1" as="geometry">
            <mxPoint x="242.6776695296636" y="334.3933982822018" as="sourcePoint" />
            <mxPoint x="360" y="230" as="targetPoint" />
          </mxGeometry>
        </mxCell>
        <mxCell id="L-6fhLivLxQXYKwf4O9B-52" value="" style="endArrow=none;html=1;exitX=0;exitY=0;exitDx=0;exitDy=0;entryX=1;entryY=1;entryDx=0;entryDy=0;" edge="1" parent="1" source="L-6fhLivLxQXYKwf4O9B-49" target="L-6fhLivLxQXYKwf4O9B-48">
          <mxGeometry width="50" height="50" relative="1" as="geometry">
            <mxPoint x="310" y="280" as="sourcePoint" />
            <mxPoint x="360" y="230" as="targetPoint" />
          </mxGeometry>
        </mxCell>
        <mxCell id="L-6fhLivLxQXYKwf4O9B-53" value="vr_pol" style="ellipse;whiteSpace=wrap;html=1;" vertex="1" parent="1">
          <mxGeometry x="213.9" y="360" width="50" height="30" as="geometry" />
        </mxCell>
        <mxCell id="L-6fhLivLxQXYKwf4O9B-54" value="" style="endArrow=classic;html=1;entryX=0;entryY=1;entryDx=0;entryDy=0;exitX=0;exitY=0.5;exitDx=0;exitDy=0;" edge="1" parent="1" source="L-6fhLivLxQXYKwf4O9B-64" target="L-6fhLivLxQXYKwf4O9B-38">
          <mxGeometry width="50" height="50" relative="1" as="geometry">
            <mxPoint x="330" y="210" as="sourcePoint" />
            <mxPoint x="360" y="230" as="targetPoint" />
          </mxGeometry>
        </mxCell>
        <mxCell id="L-6fhLivLxQXYKwf4O9B-55" value="Grad" style="rounded=0;whiteSpace=wrap;html=1;" vertex="1" parent="1">
          <mxGeometry x="41" y="268.01" width="70" height="40" as="geometry" />
        </mxCell>
        <mxCell id="L-6fhLivLxQXYKwf4O9B-56" value="" style="endArrow=classic;html=1;exitX=0;exitY=0.5;exitDx=0;exitDy=0;entryX=0.5;entryY=1;entryDx=0;entryDy=0;" edge="1" parent="1" source="L-6fhLivLxQXYKwf4O9B-59" target="L-6fhLivLxQXYKwf4O9B-1">
          <mxGeometry width="50" height="50" relative="1" as="geometry">
            <mxPoint x="290" y="200" as="sourcePoint" />
            <mxPoint x="340" y="150" as="targetPoint" />
          </mxGeometry>
        </mxCell>
        <mxCell id="L-6fhLivLxQXYKwf4O9B-57" value="" style="rounded=0;whiteSpace=wrap;html=1;" vertex="1" parent="1">
          <mxGeometry x="75" y="410" width="80" height="50" as="geometry" />
        </mxCell>
        <mxCell id="L-6fhLivLxQXYKwf4O9B-58" value="Ruta" style="rounded=0;whiteSpace=wrap;html=1;" vertex="1" parent="1">
          <mxGeometry x="80" y="415" width="70" height="40" as="geometry" />
        </mxCell>
        <mxCell id="L-6fhLivLxQXYKwf4O9B-59" value="saobraca" style="rhombus;whiteSpace=wrap;html=1;rotation=-15;direction=south;" vertex="1" parent="1">
          <mxGeometry x="135" y="151.99" width="58.9" height="58.01" as="geometry" />
        </mxCell>
        <mxCell id="L-6fhLivLxQXYKwf4O9B-60" value="" style="shape=link;html=1;exitX=1;exitY=0.5;exitDx=0;exitDy=0;entryX=0.25;entryY=0;entryDx=0;entryDy=0;" edge="1" parent="1" source="L-6fhLivLxQXYKwf4O9B-59" target="L-6fhLivLxQXYKwf4O9B-48">
          <mxGeometry width="100" relative="1" as="geometry">
            <mxPoint x="230" y="230" as="sourcePoint" />
            <mxPoint x="330" y="230" as="targetPoint" />
          </mxGeometry>
        </mxCell>
        <mxCell id="L-6fhLivLxQXYKwf4O9B-61" value="licenca" style="rhombus;whiteSpace=wrap;html=1;rotation=-25;direction=south;" vertex="1" parent="1">
          <mxGeometry x="300" y="93.49000000000001" width="50" height="48.01" as="geometry" />
        </mxCell>
        <mxCell id="L-6fhLivLxQXYKwf4O9B-62" value="" style="endArrow=none;html=1;entryX=0;entryY=0;entryDx=0;entryDy=0;exitX=1;exitY=0.5;exitDx=0;exitDy=0;" edge="1" parent="1" source="L-6fhLivLxQXYKwf4O9B-61" target="L-6fhLivLxQXYKwf4O9B-38">
          <mxGeometry width="50" height="50" relative="1" as="geometry">
            <mxPoint x="280" y="220" as="sourcePoint" />
            <mxPoint x="330" y="170" as="targetPoint" />
          </mxGeometry>
        </mxCell>
        <mxCell id="L-6fhLivLxQXYKwf4O9B-63" value="" style="endArrow=none;html=1;entryX=0;entryY=0.5;entryDx=0;entryDy=0;exitX=0.75;exitY=1;exitDx=0;exitDy=0;" edge="1" parent="1" source="L-6fhLivLxQXYKwf4O9B-7" target="L-6fhLivLxQXYKwf4O9B-61">
          <mxGeometry width="50" height="50" relative="1" as="geometry">
            <mxPoint x="280" y="220" as="sourcePoint" />
            <mxPoint x="330" y="170" as="targetPoint" />
          </mxGeometry>
        </mxCell>
        <mxCell id="L-6fhLivLxQXYKwf4O9B-64" value="upravlja" style="rhombus;whiteSpace=wrap;html=1;rotation=45;direction=south;" vertex="1" parent="1">
          <mxGeometry x="280" y="210" width="58.9" height="58.01" as="geometry" />
        </mxCell>
        <mxCell id="L-6fhLivLxQXYKwf4O9B-65" value="" style="shape=link;html=1;exitX=1;exitY=0;exitDx=0;exitDy=0;entryX=1;entryY=0.5;entryDx=0;entryDy=0;" edge="1" parent="1" source="L-6fhLivLxQXYKwf4O9B-48" target="L-6fhLivLxQXYKwf4O9B-64">
          <mxGeometry width="100" relative="1" as="geometry">
            <mxPoint x="201.95704640319866" y="237.0216785915144" as="sourcePoint" />
            <mxPoint x="227.5" y="290" as="targetPoint" />
          </mxGeometry>
        </mxCell>
        <mxCell id="L-6fhLivLxQXYKwf4O9B-66" value="ime" style="ellipse;whiteSpace=wrap;html=1;" vertex="1" parent="1">
          <mxGeometry x="70" y="224" width="50" height="30" as="geometry" />
        </mxCell>
        <mxCell id="L-6fhLivLxQXYKwf4O9B-67" value="&lt;u&gt;id&lt;/u&gt;" style="ellipse;whiteSpace=wrap;html=1;" vertex="1" parent="1">
          <mxGeometry x="10" y="224" width="50" height="30" as="geometry" />
        </mxCell>
        <mxCell id="L-6fhLivLxQXYKwf4O9B-68" value="" style="endArrow=none;html=1;entryX=0.5;entryY=1;entryDx=0;entryDy=0;exitX=0.5;exitY=0;exitDx=0;exitDy=0;" edge="1" parent="1" source="L-6fhLivLxQXYKwf4O9B-55" target="L-6fhLivLxQXYKwf4O9B-66">
          <mxGeometry width="50" height="50" relative="1" as="geometry">
            <mxPoint x="70" y="280" as="sourcePoint" />
            <mxPoint x="120" y="230" as="targetPoint" />
          </mxGeometry>
        </mxCell>
        <mxCell id="L-6fhLivLxQXYKwf4O9B-69" value="" style="endArrow=none;html=1;entryX=0.5;entryY=1;entryDx=0;entryDy=0;exitX=0.25;exitY=0;exitDx=0;exitDy=0;" edge="1" parent="1" source="L-6fhLivLxQXYKwf4O9B-55" target="L-6fhLivLxQXYKwf4O9B-67">
          <mxGeometry width="50" height="50" relative="1" as="geometry">
            <mxPoint x="70" y="280" as="sourcePoint" />
            <mxPoint x="120" y="230" as="targetPoint" />
          </mxGeometry>
        </mxCell>
        <mxCell id="L-6fhLivLxQXYKwf4O9B-70" value="" style="shape=link;html=1;exitX=0;exitY=0;exitDx=0;exitDy=0;entryX=0.5;entryY=0;entryDx=0;entryDy=0;" edge="1" parent="1" source="L-6fhLivLxQXYKwf4O9B-57" target="L-6fhLivLxQXYKwf4O9B-73">
          <mxGeometry width="100" relative="1" as="geometry">
            <mxPoint x="212.22704640319867" y="370.0016785915144" as="sourcePoint" />
            <mxPoint x="237.77" y="422.98" as="targetPoint" />
            <Array as="points" />
          </mxGeometry>
        </mxCell>
        <mxCell id="L-6fhLivLxQXYKwf4O9B-71" value="" style="shape=link;html=1;exitX=1;exitY=0.5;exitDx=0;exitDy=0;entryX=0.75;entryY=0;entryDx=0;entryDy=0;width=-6;" edge="1" parent="1" source="L-6fhLivLxQXYKwf4O9B-72" target="L-6fhLivLxQXYKwf4O9B-57">
          <mxGeometry width="100" relative="1" as="geometry">
            <mxPoint x="171.67704640319866" y="360.0016785915144" as="sourcePoint" />
            <mxPoint x="197.22" y="412.98" as="targetPoint" />
          </mxGeometry>
        </mxCell>
        <mxCell id="L-6fhLivLxQXYKwf4O9B-72" value="dolazak" style="rhombus;whiteSpace=wrap;html=1;rotation=0;direction=south;" vertex="1" parent="1">
          <mxGeometry x="100.55" y="340" width="49.45" height="50" as="geometry" />
        </mxCell>
        <mxCell id="L-6fhLivLxQXYKwf4O9B-73" value="polazak" style="rhombus;whiteSpace=wrap;html=1;rotation=0;direction=west;" vertex="1" parent="1">
          <mxGeometry x="40.995000000000005" y="339.005" width="48.01" height="50" as="geometry" />
        </mxCell>
        <mxCell id="L-6fhLivLxQXYKwf4O9B-74" value="" style="endArrow=classic;html=1;exitX=0;exitY=0.5;exitDx=0;exitDy=0;entryX=1;entryY=1;entryDx=0;entryDy=0;" edge="1" parent="1" source="L-6fhLivLxQXYKwf4O9B-72" target="L-6fhLivLxQXYKwf4O9B-55">
          <mxGeometry width="50" height="50" relative="1" as="geometry">
            <mxPoint x="186.94295359680143" y="180.9883214084856" as="sourcePoint" />
            <mxPoint x="140" y="90" as="targetPoint" />
          </mxGeometry>
        </mxCell>
        <mxCell id="L-6fhLivLxQXYKwf4O9B-75" value="" style="endArrow=classic;html=1;exitX=0.5;exitY=1;exitDx=0;exitDy=0;entryX=0.25;entryY=1;entryDx=0;entryDy=0;" edge="1" parent="1" source="L-6fhLivLxQXYKwf4O9B-73" target="L-6fhLivLxQXYKwf4O9B-55">
          <mxGeometry width="50" height="50" relative="1" as="geometry">
            <mxPoint x="196.94295359680143" y="190.9883214084856" as="sourcePoint" />
            <mxPoint x="150" y="100" as="targetPoint" />
          </mxGeometry>
        </mxCell>
        <mxCell id="L-6fhLivLxQXYKwf4O9B-76" value="sastoji_se" style="rhombus;whiteSpace=wrap;html=1;" vertex="1" parent="1">
          <mxGeometry x="175" y="406.25" width="60" height="57.5" as="geometry" />
        </mxCell>
        <mxCell id="L-6fhLivLxQXYKwf4O9B-77" value="" style="endArrow=none;html=1;entryX=0.25;entryY=1;entryDx=0;entryDy=0;exitX=0.5;exitY=0;exitDx=0;exitDy=0;" edge="1" parent="1" source="L-6fhLivLxQXYKwf4O9B-76" target="L-6fhLivLxQXYKwf4O9B-48">
          <mxGeometry width="50" height="50" relative="1" as="geometry">
            <mxPoint x="250" y="440" as="sourcePoint" />
            <mxPoint x="300" y="390" as="targetPoint" />
          </mxGeometry>
        </mxCell>
        <mxCell id="L-6fhLivLxQXYKwf4O9B-78" value="" style="endArrow=none;html=1;exitX=1;exitY=0.5;exitDx=0;exitDy=0;entryX=0;entryY=0.5;entryDx=0;entryDy=0;" edge="1" parent="1" source="L-6fhLivLxQXYKwf4O9B-57" target="L-6fhLivLxQXYKwf4O9B-76">
          <mxGeometry width="50" height="50" relative="1" as="geometry">
            <mxPoint x="250" y="440" as="sourcePoint" />
            <mxPoint x="300" y="390" as="targetPoint" />
          </mxGeometry>
        </mxCell>
        <mxCell id="L-6fhLivLxQXYKwf4O9B-80" value="u_avionu" style="rhombus;whiteSpace=wrap;html=1;rotation=0;direction=south;" vertex="1" parent="1">
          <mxGeometry x="396" y="313.49" width="58.9" height="63.01" as="geometry" />
        </mxCell>
        <mxCell id="L-6fhLivLxQXYKwf4O9B-82" value="" style="endArrow=classic;html=1;entryX=0.5;entryY=1;entryDx=0;entryDy=0;exitX=0.5;exitY=0;exitDx=0;exitDy=0;" edge="1" parent="1" source="L-6fhLivLxQXYKwf4O9B-80" target="L-6fhLivLxQXYKwf4O9B-33">
          <mxGeometry width="50" height="50" relative="1" as="geometry">
            <mxPoint x="430" y="320" as="sourcePoint" />
            <mxPoint x="480" y="270" as="targetPoint" />
            <Array as="points">
              <mxPoint x="560" y="340" />
            </Array>
          </mxGeometry>
        </mxCell>
        <mxCell id="L-6fhLivLxQXYKwf4O9B-83" value="" style="shape=link;html=1;exitX=1;exitY=0.5;exitDx=0;exitDy=0;entryX=0.5;entryY=1;entryDx=0;entryDy=0;" edge="1" parent="1" source="L-6fhLivLxQXYKwf4O9B-48" target="L-6fhLivLxQXYKwf4O9B-80">
          <mxGeometry width="100" relative="1" as="geometry">
            <mxPoint x="310" y="290" as="sourcePoint" />
            <mxPoint x="410" y="290" as="targetPoint" />
          </mxGeometry>
        </mxCell>
        <mxCell id="L-6fhLivLxQXYKwf4O9B-84" value="vr_dol" style="ellipse;whiteSpace=wrap;html=1;" vertex="1" parent="1">
          <mxGeometry x="270" y="369" width="46.1" height="30" as="geometry" />
        </mxCell>
        <mxCell id="L-6fhLivLxQXYKwf4O9B-85" value="" style="endArrow=none;html=1;exitX=0.5;exitY=0;exitDx=0;exitDy=0;entryX=0.75;entryY=1;entryDx=0;entryDy=0;" edge="1" parent="1" source="L-6fhLivLxQXYKwf4O9B-84" target="L-6fhLivLxQXYKwf4O9B-48">
          <mxGeometry width="50" height="50" relative="1" as="geometry">
            <mxPoint x="250" y="220" as="sourcePoint" />
            <mxPoint x="300" y="170" as="targetPoint" />
          </mxGeometry>
        </mxCell>
        <mxCell id="L-6fhLivLxQXYKwf4O9B-86" value="pripada" style="rhombus;whiteSpace=wrap;html=1;rotation=0;direction=south;" vertex="1" parent="1">
          <mxGeometry x="155" y="35" width="50" height="50" as="geometry" />
        </mxCell>
        <mxCell id="L-6fhLivLxQXYKwf4O9B-87" value="" style="shape=link;html=1;exitX=1;exitY=0.5;exitDx=0;exitDy=0;entryX=0.5;entryY=1;entryDx=0;entryDy=0;" edge="1" parent="1" source="L-6fhLivLxQXYKwf4O9B-1" target="L-6fhLivLxQXYKwf4O9B-86">
          <mxGeometry width="100" relative="1" as="geometry">
            <mxPoint x="186.95704640319866" y="219.0116785915144" as="sourcePoint" />
            <mxPoint x="227.5" y="290" as="targetPoint" />
          </mxGeometry>
        </mxCell>
      </root>
    </mxGraphModel>
  </diagram>
</mxfile>
